<?xml version="1.0" encoding="utf-8"?>
<!-- Generator: Adobe Illustrator 22.0.0, SVG Export Plug-In . SVG Version: 6.00 Build 0)  -->
<svg version="1.1" id="Layer_1" xmlns="http://www.w3.org/2000/svg" xmlns:xlink="http://www.w3.org/1999/xlink" x="0px" y="0px"
	 viewBox="0 0 640 480" style="enable-background:new 0 0 640 480;" xml:space="preserve">
<style type="text/css">
	.st0{fill:#0A192F;enable-background:new    ;}
	.st1{fill:#0A192F;}
	.st2{fill:#64FFDA;}
</style>
<polygon class="st0" points="236.1,192 236.1,288 320,336 404,288 404,192 320,144 "/>
<title>Artboard 1</title>
<rect x="284.1" y="197" class="st1" width="71.8" height="86"/>
<path class="st2" d="M340,283l-25.8-38.4l-6,6.9V283h-13.3v-83.2h13.4v36c1.2-1.7,2.5-3.4,4-5.3l25-30.7h16.8l-30.4,35.6l32.2,47.6
	H340z"/>
<path class="st2" d="M296.4,201.3h10.4V240h0.4c2.1-3.1,4.3-6,6.3-8.6l24.5-30.1h12.9l-29,34l31.3,46.2h-12.3l-26.4-39.4l-7.6,8.8
	v30.6h-10.3V201.3z"/>
</svg>
